<svg width="24.000000" height="24.000000" viewBox="0 0 24 24" fill="none" xmlns="http://www.w3.org/2000/svg" xmlns:xlink="http://www.w3.org/1999/xlink">
	<desc>
			Created with Pixso.
	</desc>
	<g clip-path="url(#clip4_1300)">
		<path d="M19.1267 12.3038C19.1267 12.5374 19.0286 12.7634 18.8555 12.9291L13.906 17.8787C13.71 18.067 13.5066 18.1498 13.2957 18.1498C12.8135 18.1498 12.467 17.8109 12.467 17.3513C12.467 17.1102 12.5649 16.9068 12.7156 16.7562L14.4106 15.0385L16.5955 13.0421L14.8477 13.1476L5.71704 13.1476C5.21216 13.1476 4.86572 12.8011 4.86572 12.3038C4.86572 11.8142 5.21216 11.4677 5.71704 11.4677L14.8477 11.4677L16.5955 11.5731L14.4106 9.57672L12.7156 7.85913C12.5649 7.70844 12.467 7.505 12.467 7.26398C12.467 6.80444 12.8135 6.46539 13.2957 6.46539C13.5066 6.46539 13.71 6.54828 13.8909 6.72156L18.8555 11.6861C19.0286 11.8519 19.1267 12.0779 19.1267 12.3038Z" fill-rule="evenodd" fill="#FFFFFF"/>
	</g>
	<defs>
		<clipPath id="clip4_1300">
			<rect width="24.000000" height="24.000000" transform="matrix(1 0 0 -1 0 24)" fill="white"/>
		</clipPath>
	</defs>
</svg>
