<svg width="454.837402" height="52.864014" viewBox="0 0 454.837 52.864" fill="none" xmlns="http://www.w3.org/2000/svg" xmlns:xlink="http://www.w3.org/1999/xlink">
	<desc>
			Created with Pixso.
	</desc>
	<path d="M70.728 3.02401L43.12 3.02401L43.288 2.07201C43.4 1.512 43.232 1.008 42.84 0.616005C42.504 0.168007 42.056 3.8147e-06 41.496 3.8147e-06L31.472 3.8147e-06L30.856 3.02401L6.72004 3.02401C5.82404 3.02401 5.04004 3.304 4.36804 3.92001C3.69604 4.48001 3.36004 5.208 3.19204 6.10401L2.74404 8.40001L65.8 8.40001C66.92 8.40001 67.872 8.064 68.712 7.39201C69.608 6.72001 70.168 5.82401 70.392 4.76001L70.728 3.02401ZM257.694 3.58401L257.862 2.52C257.974 1.792 257.806 1.17601 257.358 0.728004C256.966 0.224007 256.518 3.8147e-06 255.846 3.8147e-06L247.446 3.8147e-06L246.942 3.58401L238.934 3.58401C238.542 3.58401 238.15 3.69601 237.814 4.03201C237.478 4.312 237.366 4.704 237.254 5.152L236.75 8.848L240.726 8.848L230.982 52.752Q235.518 52.752 239.214 49.56C241.734 47.432 243.302 44.688 244.086 41.44L251.31 8.848L264.694 8.848C265.086 8.848 265.422 8.68001 265.758 8.40001C266.094 8.064 266.262 7.728 266.318 7.33601L266.822 3.58401L257.694 3.58401ZM300.926 2.24001L281.662 2.24001L282.558 3.8147e-06L272.646 3.8147e-06C272.366 3.8147e-06 272.086 0.112007 271.75 0.336006C271.47 0.560005 271.302 0.784004 271.19 1.12001L266.934 11.984L274.102 11.984C275.278 11.984 276.342 11.592 277.35 10.864C278.358 10.08 279.142 9.12801 279.59 7.95201L279.758 7.56001L298.35 7.56001C298.91 7.56001 299.358 7.33601 299.75 6.944C300.198 6.49601 300.366 6.10401 300.478 5.54401L300.926 2.24001ZM310.122 30.576L335.882 30.576L339.298 5.488L312.754 5.488L313.202 2.35201C313.314 1.68001 313.65 1.12001 314.098 0.672005C314.602 0.224007 315.162 3.8147e-06 315.834 3.8147e-06L377.994 3.8147e-06L377.49 3.52801C377.434 4.08801 377.21 4.53601 376.762 4.92801C376.314 5.26401 375.81 5.488 375.25 5.488L350.946 5.488L347.53 30.576L375.026 30.576L374.466 34.608C374.41 35.168 374.186 35.616 373.738 36.008C373.29 36.344 372.786 36.568 372.226 36.568L346.69 36.568L344.45 52.808L332.802 52.808L335.042 36.568L307.266 36.568L307.826 32.592C307.938 31.976 308.218 31.472 308.666 31.136C309.114 30.744 309.562 30.576 310.122 30.576ZM389.877 22.288C389.205 22.288 388.589 22.176 388.141 21.896C387.693 21.56 387.301 21.168 387.077 20.72C386.853 20.216 386.685 19.656 386.685 19.096C386.741 18.48 386.909 17.92 387.189 17.36L398.109 0.0560036L411.997 3.8147e-06L403.037 15.344C402.925 15.792 402.925 16.128 403.037 16.352C403.205 16.576 403.485 16.744 403.877 16.744L441.733 15.792L440.277 3.92001L447.725 3.92001C449.181 3.92001 450.357 4.368 451.309 5.26401C452.261 6.10401 452.821 7.28001 452.933 8.73601L454.837 23.408L444.421 23.408C443.469 23.408 442.853 22.848 442.573 21.784L442.461 20.944L389.877 22.288ZM143.933 4.92801C144.493 4.25601 144.661 3.58401 144.549 2.74401L144.101 0.112007L85.6931 0.112007L80.3731 30.688C80.2051 31.92 80.4851 33.04 81.2691 33.936C82.0531 34.832 83.0611 35.28 84.2931 35.28L92.5251 35.28L97.5651 5.88L141.805 5.88C142.701 5.88 143.373 5.54401 143.933 4.92801ZM207.337 52.864L197.257 52.864L200.617 28.56L174.017 28.56L169.817 44.352C169.145 46.816 167.745 48.888 165.729 50.512C163.713 52.08 161.529 52.864 159.065 52.864L155.873 52.864L162.257 28.56L155.817 28.56C155.369 28.56 154.977 28.392 154.697 28.056C154.473 27.72 154.361 27.328 154.361 26.88L155.033 21.952L163.657 21.952L167.633 5.992L160.857 5.992C160.297 5.992 159.793 5.76801 159.401 5.32001C159.065 4.87201 158.897 4.368 158.953 3.75201L159.401 0.392006L222.289 0.392006C222.793 0.392006 223.185 0.560005 223.465 0.896008C223.801 1.23201 223.857 1.62401 223.745 2.12801L223.241 5.992L215.513 5.992L213.273 21.952L220.945 21.952C221.393 21.952 221.673 22.064 221.897 22.4C222.121 22.68 222.233 22.96 222.177 23.408L221.449 28.56L212.377 28.56L209.185 51.24C209.129 51.688 208.905 52.08 208.513 52.416C208.177 52.696 207.785 52.864 207.337 52.864ZM179.337 5.992L175.417 21.952L201.513 21.952L203.753 5.992L179.337 5.992ZM314.21 25.256L314.602 7.89601L321.378 7.89601C322.666 7.89601 323.73 8.28801 324.57 9.18401C325.41 9.96801 325.858 11.032 325.858 12.376L325.354 27.72L316.562 27.72C315.89 27.72 315.33 27.496 314.882 27.048C314.434 26.544 314.21 25.928 314.21 25.256ZM358.562 27.72L363.042 9.856C363.21 9.29601 363.49 8.792 363.938 8.45601C364.442 8.064 364.946 7.89601 365.506 7.89601L374.746 7.89601L371.666 19.992C371.106 22.232 369.874 24.08 368.082 25.536C366.29 26.992 364.33 27.72 362.146 27.72L358.562 27.72ZM56.336 17.976L59.36 9.29601L51.632 9.29601C50.064 9.29601 48.776 9.80001 47.768 10.808C46.76 11.816 46.032 12.88 45.528 14.056L44.576 17.976L24.92 17.976L24.584 15.064C24.36 13.608 23.744 12.32 22.68 11.088C21.672 9.856 20.496 9.29601 19.096 9.29601L12.096 9.29601L12.712 17.976L4.03204 17.976C3.13604 17.976 2.35204 18.312 1.62404 18.984C0.952035 19.656 0.560035 20.384 0.392035 21.28L3.52859e-05 23.8L66.584 23.8C67.144 23.8 67.648 23.576 68.04 23.128C68.488 22.68 68.712 22.232 68.768 21.672L69.44 17.976L56.336 17.976ZM141.749 30.464C141.189 29.848 140.573 29.568 139.677 29.568L119.685 29.568L122.429 9.52L113.413 9.52C112.573 9.52 111.845 9.80001 111.173 10.416C110.557 10.976 110.221 11.648 110.053 12.544L107.701 29.568L95.0451 29.568L94.2051 35.28L106.861 35.28L104.397 52.808L112.237 52.808C113.469 52.808 114.477 52.416 115.373 51.632C116.269 50.848 116.773 49.896 116.941 48.72L118.845 35.28L142.029 35.28L142.421 32.648C142.533 31.752 142.309 31.024 141.749 30.464ZM285.694 32.984L298.686 11.088L289.278 11.088C288.438 11.088 287.71 11.536 287.038 12.488L280.878 23.296L278.806 16.408C278.47 15.512 277.854 15.064 276.958 15.064L266.99 15.064L273.934 32.144L260.998 52.752L268.838 52.752C271.246 52.752 273.318 51.52 275.11 49.056L278.974 43.008L282.222 51.072C282.782 52.192 283.566 52.752 284.63 52.752L294.262 52.752L285.694 32.984ZM250.526 19.04L253.214 19.04L249.462 47.432C249.462 47.544 249.462 47.712 249.406 47.824C249.406 47.936 249.294 47.936 249.182 48.048C249.07 48.16 248.958 48.216 248.846 48.272L247.894 48.272C247.502 48.272 247.166 48.384 246.83 48.72C246.55 49 246.382 49.336 246.27 49.784L245.878 52.752L255.062 52.752C256.294 52.752 257.414 52.248 258.422 51.296C259.43 50.288 260.046 49.168 260.158 47.824L264.526 14.616L251.534 14.616L250.526 19.04ZM402.253 30.576L402.869 25.648L453.437 25.648L450.469 46.536C450.245 48.328 449.461 49.784 448.005 51.016C446.661 52.192 445.149 52.808 443.357 52.808L389.485 52.808C387.805 52.808 386.405 52.192 385.341 51.016C384.333 49.784 383.941 48.328 384.165 46.592L387.077 25.648L400.629 25.648L397.885 45.192C397.773 45.976 397.885 46.648 398.333 47.208C398.781 47.768 399.397 48.048 400.181 48.048L433.893 48.048C434.677 48.048 435.405 47.768 435.965 47.264C436.637 46.704 437.029 46.032 437.141 45.248L439.213 30.576L402.253 30.576ZM17.192 26.656L16.576 31.192L51.968 31.192L51.016 36.904L13.944 36.904L15.512 26.656L3.80804 26.656L0.952035 46.536C0.728035 48.272 1.17604 49.728 2.18404 50.96C3.24804 52.192 4.59204 52.808 6.27204 52.808L54.264 52.808C56 52.808 57.568 52.192 58.912 51.072C60.256 49.84 61.096 48.328 61.32 46.536L64.12 26.656L17.192 26.656ZM84.5171 38.136L80.7651 52.808L87.6531 52.808C90.1171 52.808 91.8531 51.52 92.8611 49L95.4931 38.136L84.5171 38.136ZM138.109 41.944C137.101 39.368 135.365 38.136 132.957 38.136L126.013 38.136L128.365 52.808L139.341 52.808L138.109 41.944ZM50.344 41.608L49.672 45.92C49.616 46.48 49.336 47.04 48.888 47.488C48.44 47.936 47.88 48.16 47.32 48.16L14.448 48.16C13.888 48.16 13.44 47.936 13.104 47.488C12.768 47.04 12.6 46.536 12.656 45.92L13.328 41.608L50.344 41.608Z" fill="#1B1B1F"/>
	<defs/>
</svg>
