<svg width="241.000000" height="48.000000" viewBox="0 0 241 48" fill="none" xmlns="http://www.w3.org/2000/svg" xmlns:xlink="http://www.w3.org/1999/xlink">
	<desc>
			Created with Pixso.
	</desc>
	<g clip-path="url(#clip6_424)">
		<path d="M125.929 21.1031L113.152 21.1031L110.268 21.1031C109.744 21.1031 109.312 21.5326 109.312 22.0547L109.312 24.4463L109.312 34.9474C109.312 35.4695 109.744 35.8989 110.268 35.8989L113.152 35.8989C113.676 35.8989 114.107 35.4695 114.107 34.9474L114.107 25.3979L125.929 25.3979C126.462 25.3979 126.893 24.9684 126.893 24.4463L126.893 22.0547C126.893 21.5326 126.462 21.1031 125.929 21.1031Z" fill-rule="evenodd" fill="#353EFB"/>
		<path d="M125.929 12.0337L110.268 12.0337C109.744 12.0337 109.312 12.4632 109.312 12.9853L109.312 15.3684C109.312 15.899 109.744 16.3284 110.268 16.3284L125.929 16.3284C126.462 16.3284 126.893 15.899 126.893 15.3684L126.893 12.9853C126.893 12.4632 126.462 12.0337 125.929 12.0337Z" fill-rule="evenodd" fill="#353EFB"/>
		<path d="M190.652 21.1031L174.991 21.1031C174.467 21.1031 174.036 21.5326 174.036 22.0547L174.036 24.4463C174.036 24.9684 174.467 25.3979 174.991 25.3979L190.652 25.3979C191.177 25.3979 191.608 24.9684 191.608 24.4463L191.608 22.0547C191.608 21.5326 191.177 21.1031 190.652 21.1031Z" fill-rule="evenodd" fill="#353EFB"/>
		<path d="M190.652 31.6042L174.991 31.6042C174.467 31.6042 174.036 32.0337 174.036 32.5558L174.036 34.9474C174.036 35.4695 174.467 35.899 174.991 35.899L190.652 35.899C191.177 35.899 191.608 35.4695 191.608 34.9474L191.608 32.5558C191.608 32.0337 191.177 31.6042 190.652 31.6042Z" fill-rule="evenodd" fill="#353EFB"/>
		<path d="M199.438 31.6042L197.045 31.6042C196.512 31.6042 196.081 32.0337 196.081 32.5558L196.081 34.9474C196.081 35.4695 196.512 35.899 197.045 35.899L199.438 35.899C199.971 35.899 200.402 35.4695 200.402 34.9474L200.402 32.5558C200.402 32.0337 199.971 31.6042 199.438 31.6042Z" fill-rule="evenodd" fill="#353EFB"/>
		<path d="M190.652 12.0337L174.991 12.0337C174.467 12.0337 174.036 12.4632 174.036 12.9853L174.036 15.3684C174.036 15.899 174.467 16.3284 174.991 16.3284L190.652 16.3284C191.177 16.3284 191.608 15.899 191.608 15.3684L191.608 12.9853C191.608 12.4632 191.177 12.0337 190.652 12.0337Z" fill-rule="evenodd" fill="#353EFB"/>
		<path d="M89.1782 12.0337L86.3032 12.0337C85.7705 12.0337 85.3394 12.4632 85.3394 12.9853L85.3394 21.1032L77.3567 21.1032L77.3567 12.9853C77.3567 12.4632 76.9253 12.0337 76.3926 12.0337L73.5176 12.0337C72.9932 12.0337 72.562 12.4632 72.562 12.9853L72.562 22.0547L72.562 24.4463L72.562 34.9474C72.562 35.4695 72.9932 35.899 73.5176 35.899L76.3926 35.899C76.9253 35.899 77.3567 35.4695 77.3567 34.9474L77.3567 25.3979L85.3394 25.3979L85.3394 34.9474C85.3394 35.4695 85.7705 35.899 86.3032 35.899L89.1782 35.899C89.7026 35.899 90.1338 35.4695 90.1338 34.9474L90.1338 24.4463L90.1338 22.0547L90.1338 12.9853C90.1338 12.4632 89.7026 12.0337 89.1782 12.0337Z" fill-rule="evenodd" fill="#353EFB"/>
		<path d="M101.161 12.0337L98.2856 12.0337C97.7612 12.0337 97.3301 12.4632 97.3301 12.9853L97.3301 34.9474C97.3301 35.4695 97.7612 35.899 98.2856 35.899L101.161 35.899C101.693 35.899 102.125 35.4695 102.125 34.9474L102.125 12.9853C102.125 12.4632 101.693 12.0337 101.161 12.0337Z" fill-rule="evenodd" fill="#353EFB"/>
		<path d="M137.92 12.0337L135.045 12.0337C134.512 12.0337 134.081 12.4632 134.081 12.9853L134.081 34.9474C134.081 35.4695 134.512 35.899 135.045 35.899L137.92 35.899C138.444 35.899 138.875 35.4695 138.875 34.9474L138.875 12.9853C138.875 12.4632 138.444 12.0337 137.92 12.0337Z" fill-rule="evenodd" fill="#353EFB"/>
		<path d="M239.393 12.0337L236.51 12.0337C235.985 12.0337 235.554 12.4632 235.554 12.9853L235.554 34.9474C235.554 35.4695 235.985 35.899 236.51 35.899L239.393 35.899C239.917 35.899 240.349 35.4695 240.349 34.9474L240.349 12.9853C240.349 12.4632 239.917 12.0337 239.393 12.0337Z" fill-rule="evenodd" fill="#353EFB"/>
		<path d="M167.744 12.0337L164.565 12.0337C164.024 12.0337 163.423 12.4295 163.229 12.9179L160.024 20.9348L156.811 28.9516L156.456 29.8358L156.1 28.9516L149.682 12.9179C149.479 12.4295 148.879 12.0337 148.338 12.0337L145.167 12.0337C144.625 12.0337 144.338 12.4295 144.532 12.9263L148.828 23.9663L153.124 35.0063C153.318 35.5032 153.919 35.899 154.46 35.899L158.451 35.899C158.992 35.899 159.593 35.5032 159.779 35.0063L164.083 23.9663L168.379 12.9263C168.573 12.4295 168.286 12.0337 167.744 12.0337Z" fill-rule="evenodd" fill="#353EFB"/>
		<path d="M225.601 23.9663L221.305 12.9263C221.111 12.4295 220.519 12.0337 219.978 12.0337L215.978 12.0337C215.437 12.0337 214.845 12.4295 214.651 12.9263L210.355 23.9663L206.051 35.0063C205.856 35.5032 206.144 35.899 206.685 35.899L209.864 35.899C210.406 35.899 211.006 35.5032 211.2 35.0147L214.414 26.9979L217.619 18.981L217.974 18.0884L218.337 18.981L224.756 35.0147C224.95 35.5032 225.551 35.899 226.092 35.899L229.271 35.899C229.812 35.899 230.092 35.5032 229.906 35.0063L225.601 23.9663Z" fill-rule="evenodd" fill="#353EFB"/>
		<path d="M48.589 38.8884C48.589 43.8063 44.547 47.84 39.6001 47.84L9.64001 47.84C4.69312 47.84 0.651123 43.8063 0.651123 38.8884L0.651123 9.04422C0.651123 4.12633 4.69312 0.0926361 9.64001 0.0926361L39.6001 0.0926361C44.547 0.0926361 48.589 4.12633 48.589 9.04422L48.589 38.8884Z" fill-rule="evenodd" fill="#353EFB"/>
		<path d="M39.6001 26.3411L39.6001 19.4863C39.6001 19.1579 39.4225 18.8463 39.135 18.6695C38.8475 18.5011 38.4923 18.4842 38.1964 18.6442L11.7625 32.4547L11.5511 32.5726L11.5511 32.3284L11.5511 13.979L11.5511 13.7432L18.4851 17.3642L25.1993 20.8758C25.3177 20.9348 25.5038 20.9348 25.6221 20.8758L27.2034 20.0505L27.2626 20.0168C27.381 19.9579 27.381 19.8568 27.2626 19.7979L11.2551 11.4189C11.1367 11.36 10.9338 11.2842 10.807 11.259C10.528 11.2 10.2911 11.2253 10.0967 11.3432C9.80908 11.5116 9.64001 11.8232 9.64001 12.16L9.64001 12.3958L9.64001 33.9116L9.64001 34.1474C9.64001 34.4842 9.80908 34.7958 10.0967 34.9642C10.2489 35.0569 10.4264 35.1074 10.5956 35.1074C10.697 35.1074 10.7732 35.099 10.8154 35.0821C10.8915 35.0653 10.9677 35.0316 11.0437 34.9979L11.2551 34.8884L37.6805 21.0695L37.6805 26.3411L37.6805 31.3769L37.6805 31.6126L37.4691 31.5032L31.9642 28.6232C31.8458 28.5642 31.6514 28.5642 31.533 28.6232L29.8925 29.4821C29.7826 29.5411 29.7826 29.6421 29.8925 29.701L37.985 33.9284L38.1964 34.0379C38.4923 34.1979 38.8475 34.1811 39.135 34.0126C39.4225 33.8358 39.6001 33.5242 39.6001 33.1958L39.6001 32.9516L39.6001 26.3411Z" fill-rule="evenodd" fill="#FFFFFF"/>
	</g>
	<defs>
		<clipPath id="clip6_424">
			<rect width="241.000000" height="48.000000" fill="white"/>
		</clipPath>
	</defs>
</svg>
